<svg width="320" height="164" viewBox="0 0 320 164" fill="none" xmlns="http://www.w3.org/2000/svg">
<path d="M221.824 38.848V50H220.368V44.944H214.688V50H213.232V38.848H214.688V43.744H220.368V38.848H221.824ZM232.31 45.28C232.31 45.5573 232.294 45.8507 232.262 46.16H225.254C225.307 47.024 225.601 47.7013 226.134 48.192C226.678 48.672 227.334 48.912 228.102 48.912C228.731 48.912 229.254 48.768 229.67 48.48C230.097 48.1813 230.395 47.7867 230.566 47.296H232.134C231.899 48.1387 231.43 48.8267 230.726 49.36C230.022 49.8827 229.147 50.144 228.102 50.144C227.27 50.144 226.523 49.9573 225.862 49.584C225.211 49.2107 224.699 48.6827 224.326 48C223.953 47.3067 223.766 46.5067 223.766 45.6C223.766 44.6933 223.947 43.8987 224.31 43.216C224.673 42.5333 225.179 42.0107 225.83 41.648C226.491 41.2747 227.249 41.088 228.102 41.088C228.934 41.088 229.67 41.2693 230.31 41.632C230.95 41.9947 231.441 42.496 231.782 43.136C232.134 43.7653 232.31 44.48 232.31 45.28ZM230.806 44.976C230.806 44.4213 230.683 43.9467 230.438 43.552C230.193 43.1467 229.857 42.8427 229.43 42.64C229.014 42.4267 228.55 42.32 228.038 42.32C227.302 42.32 226.673 42.5547 226.15 43.024C225.638 43.4933 225.345 44.144 225.27 44.976H230.806ZM241.784 41.232L236.504 54.128H235L236.728 49.904L233.192 41.232H234.808L237.56 48.336L240.28 41.232H241.784ZM249.289 42.432V47.6C249.289 48.0267 249.38 48.3307 249.561 48.512C249.743 48.6827 250.057 48.768 250.505 48.768H251.577V50H250.265C249.455 50 248.847 49.8133 248.441 49.44C248.036 49.0667 247.833 48.4533 247.833 47.6V42.432H246.697V41.232H247.833V39.024H249.289V41.232H251.577V42.432H249.289ZM257.693 41.072C258.355 41.072 258.952 41.216 259.485 41.504C260.019 41.7813 260.435 42.2027 260.733 42.768C261.043 43.3333 261.197 44.0213 261.197 44.832V50H259.757V45.04C259.757 44.1653 259.539 43.4987 259.101 43.04C258.664 42.5707 258.067 42.336 257.309 42.336C256.541 42.336 255.928 42.576 255.469 43.056C255.021 43.536 254.797 44.2347 254.797 45.152V50H253.341V38.16H254.797V42.48C255.085 42.032 255.48 41.6853 255.981 41.44C256.493 41.1947 257.064 41.072 257.693 41.072ZM271.576 45.28C271.576 45.5573 271.56 45.8507 271.528 46.16H264.52C264.573 47.024 264.866 47.7013 265.4 48.192C265.944 48.672 266.6 48.912 267.368 48.912C267.997 48.912 268.52 48.768 268.936 48.48C269.362 48.1813 269.661 47.7867 269.832 47.296H271.4C271.165 48.1387 270.696 48.8267 269.992 49.36C269.288 49.8827 268.413 50.144 267.368 50.144C266.536 50.144 265.789 49.9573 265.128 49.584C264.477 49.2107 263.965 48.6827 263.592 48C263.218 47.3067 263.032 46.5067 263.032 45.6C263.032 44.6933 263.213 43.8987 263.576 43.216C263.938 42.5333 264.445 42.0107 265.096 41.648C265.757 41.2747 266.514 41.088 267.368 41.088C268.2 41.088 268.936 41.2693 269.576 41.632C270.216 41.9947 270.706 42.496 271.048 43.136C271.4 43.7653 271.576 44.48 271.576 45.28ZM270.072 44.976C270.072 44.4213 269.949 43.9467 269.704 43.552C269.458 43.1467 269.122 42.8427 268.696 42.64C268.28 42.4267 267.816 42.32 267.304 42.32C266.568 42.32 265.938 42.5547 265.416 43.024C264.904 43.4933 264.61 44.144 264.536 44.976H270.072ZM274.954 42.656C275.21 42.1547 275.572 41.7653 276.042 41.488C276.522 41.2107 277.103 41.072 277.786 41.072V42.576H277.402C275.77 42.576 274.954 43.4613 274.954 45.232V50H273.498V41.232H274.954V42.656ZM287.466 45.28C287.466 45.5573 287.45 45.8507 287.418 46.16H280.41C280.464 47.024 280.757 47.7013 281.29 48.192C281.834 48.672 282.49 48.912 283.258 48.912C283.888 48.912 284.41 48.768 284.826 48.48C285.253 48.1813 285.552 47.7867 285.722 47.296H287.29C287.056 48.1387 286.586 48.8267 285.882 49.36C285.178 49.8827 284.304 50.144 283.258 50.144C282.426 50.144 281.68 49.9573 281.018 49.584C280.368 49.2107 279.856 48.6827 279.482 48C279.109 47.3067 278.922 46.5067 278.922 45.6C278.922 44.6933 279.104 43.8987 279.466 43.216C279.829 42.5333 280.336 42.0107 280.986 41.648C281.648 41.2747 282.405 41.088 283.258 41.088C284.09 41.088 284.826 41.2693 285.466 41.632C286.106 41.9947 286.597 42.496 286.938 43.136C287.29 43.7653 287.466 44.48 287.466 45.28ZM285.962 44.976C285.962 44.4213 285.84 43.9467 285.594 43.552C285.349 43.1467 285.013 42.8427 284.586 42.64C284.17 42.4267 283.706 42.32 283.194 42.32C282.458 42.32 281.829 42.5547 281.306 43.024C280.794 43.4933 280.501 44.144 280.426 44.976H285.962ZM291.276 38.848L291.1 46.848H289.884L289.708 38.848H291.276ZM290.556 50.096C290.279 50.096 290.044 50 289.852 49.808C289.66 49.616 289.564 49.3813 289.564 49.104C289.564 48.8267 289.66 48.592 289.852 48.4C290.044 48.208 290.279 48.112 290.556 48.112C290.823 48.112 291.047 48.208 291.228 48.4C291.42 48.592 291.516 48.8267 291.516 49.104C291.516 49.3813 291.42 49.616 291.228 49.808C291.047 50 290.823 50.096 290.556 50.096Z" fill="#3DDEED" fill-opacity="0.8"/>
<path d="M185.408 8.30322H317.712V49.7101L291.172 78.0194H185.408V8.30322Z" stroke="#3DDEED" stroke-opacity="0.8"/>
<path d="M187.521 10.9043H315.273V48.409L289.709 75.5809H187.521V10.9043Z" stroke="#3DDEED" stroke-opacity="0.8"/>
<path d="M261.477 5.52734V7.96583H318.05V16.2567L320 13.9808V5.52734H261.477Z" fill="#3DDEED" fill-opacity="0.8"/>
<path d="M200.514 5.05185H200.75L200.9 4.86921L204.489 0.5H210.581V6.32777H186.099L187.102 5.05185H200.514Z" stroke="#3DDEED" stroke-opacity="0.8"/>
<path d="M182.957 65.0264L185.07 62.9131V78.3568H197.588L195.637 80.3076H182.957V65.0264Z" fill="#3DDEED" fill-opacity="0.8"/>
<path d="M177.267 68.4401V36.2521L183.77 32.0112V32.0254V62.1001L181.331 64.376V71.5289L177.267 68.4401Z" fill="#3DDEED" fill-opacity="0.8"/>
<path d="M177 64V106.239H205.701L206 138" stroke="#3DDEED" stroke-opacity="0.8"/>
<path d="M140.471 77.5L146.125 88L140.471 98.5L129.222 98.5L123.568 88L129.222 77.5L140.471 77.5Z" stroke="#3DDEED" stroke-opacity="0.8"/>
<path d="M143.308 88L139.077 95.1176L130.615 95.1176L126.385 88L130.615 80.8823L139.077 80.8823L143.308 88Z" fill="#3DDEED" fill-opacity="0.8"/>
<path d="M211.471 138.5L217.125 149L211.471 159.5L200.222 159.5L194.568 149L200.222 138.5L211.471 138.5Z" stroke="#3DDEED" stroke-opacity="0.8"/>
<path d="M214.308 149L210.077 156.118L201.615 156.118L197.385 149L201.615 141.882L210.077 141.882L214.308 149Z" fill="#3DDEED" fill-opacity="0.8"/>
<path d="M177.43 81.283H166.05L159.71 88.4359H146.055" stroke="#3DDEED" stroke-opacity="0.8"/>
<path d="M291.388 90.8743V79.6572H228.638L232.539 84.6968H275.457L279.358 90.8743H291.388Z" fill="#3DDEED" fill-opacity="0.8" stroke="#3DDEED" stroke-opacity="0.8"/>
<path d="M14.544 146.928V158H13.088V149.744L9.408 158H8.384L4.688 149.728V158H3.232V146.928H4.8L8.896 156.08L12.992 146.928H14.544ZM16.4693 153.584C16.4693 152.688 16.6506 151.904 17.0133 151.232C17.3759 150.549 17.8719 150.021 18.5013 149.648C19.1413 149.275 19.8506 149.088 20.6293 149.088C21.3973 149.088 22.0639 149.253 22.6293 149.584C23.1946 149.915 23.6159 150.331 23.8933 150.832V149.232H25.3653V158H23.8933V156.368C23.6053 156.88 23.1733 157.307 22.5973 157.648C22.0319 157.979 21.3706 158.144 20.6133 158.144C19.8346 158.144 19.1306 157.952 18.5013 157.568C17.8719 157.184 17.3759 156.645 17.0133 155.952C16.6506 155.259 16.4693 154.469 16.4693 153.584ZM23.8933 153.6C23.8933 152.939 23.7599 152.363 23.4933 151.872C23.2266 151.381 22.8639 151.008 22.4053 150.752C21.9573 150.485 21.4613 150.352 20.9173 150.352C20.3733 150.352 19.8773 150.48 19.4293 150.736C18.9813 150.992 18.6239 151.365 18.3573 151.856C18.0906 152.347 17.9573 152.923 17.9573 153.584C17.9573 154.256 18.0906 154.843 18.3573 155.344C18.6239 155.835 18.9813 156.213 19.4293 156.48C19.8773 156.736 20.3733 156.864 20.9173 156.864C21.4613 156.864 21.9573 156.736 22.4053 156.48C22.8639 156.213 23.2266 155.835 23.4933 155.344C23.7599 154.843 23.8933 154.261 23.8933 153.6ZM32.7218 158L29.2818 154.128V158H27.8258V146.16H29.2818V153.12L32.6578 149.232H34.6898L30.5618 153.6L34.7058 158H32.7218ZM44.0601 153.28C44.0601 153.557 44.0441 153.851 44.0121 154.16H37.0041C37.0575 155.024 37.3508 155.701 37.8841 156.192C38.4281 156.672 39.0841 156.912 39.8521 156.912C40.4815 156.912 41.0041 156.768 41.4201 156.48C41.8468 156.181 42.1455 155.787 42.3161 155.296H43.8841C43.6495 156.139 43.1801 156.827 42.4761 157.36C41.7721 157.883 40.8975 158.144 39.8521 158.144C39.0201 158.144 38.2735 157.957 37.6121 157.584C36.9615 157.211 36.4495 156.683 36.0761 156C35.7028 155.307 35.5161 154.507 35.5161 153.6C35.5161 152.693 35.6975 151.899 36.0601 151.216C36.4228 150.533 36.9295 150.011 37.5801 149.648C38.2415 149.275 38.9988 149.088 39.8521 149.088C40.6841 149.088 41.4201 149.269 42.0601 149.632C42.7001 149.995 43.1908 150.496 43.5321 151.136C43.8841 151.765 44.0601 152.48 44.0601 153.28ZM42.5561 152.976C42.5561 152.421 42.4335 151.947 42.1881 151.552C41.9428 151.147 41.6068 150.843 41.1801 150.64C40.7641 150.427 40.3001 150.32 39.7881 150.32C39.0521 150.32 38.4228 150.555 37.9001 151.024C37.3881 151.493 37.0948 152.144 37.0201 152.976H42.5561ZM57.7996 149.232L52.5196 162.128H51.0156L52.7436 157.904L49.2076 149.232H50.8236L53.5756 156.336L56.2956 149.232H57.7996ZM63.0873 158.144C62.2659 158.144 61.5193 157.957 60.8473 157.584C60.1859 157.211 59.6633 156.683 59.2793 156C58.9059 155.307 58.7193 154.507 58.7193 153.6C58.7193 152.704 58.9113 151.915 59.2953 151.232C59.6899 150.539 60.2233 150.011 60.8953 149.648C61.5673 149.275 62.3193 149.088 63.1513 149.088C63.9833 149.088 64.7353 149.275 65.4073 149.648C66.0793 150.011 66.6073 150.533 66.9913 151.216C67.3859 151.899 67.5833 152.693 67.5833 153.6C67.5833 154.507 67.3806 155.307 66.9753 156C66.5806 156.683 66.0419 157.211 65.3593 157.584C64.6766 157.957 63.9193 158.144 63.0873 158.144ZM63.0873 156.864C63.6099 156.864 64.1006 156.741 64.5593 156.496C65.0179 156.251 65.3859 155.883 65.6633 155.392C65.9513 154.901 66.0953 154.304 66.0953 153.6C66.0953 152.896 65.9566 152.299 65.6793 151.808C65.4019 151.317 65.0393 150.955 64.5913 150.72C64.1433 150.475 63.6579 150.352 63.1353 150.352C62.6019 150.352 62.1113 150.475 61.6633 150.72C61.2259 150.955 60.8739 151.317 60.6073 151.808C60.3406 152.299 60.2073 152.896 60.2073 153.6C60.2073 154.315 60.3353 154.917 60.5913 155.408C60.8579 155.899 61.2099 156.267 61.6473 156.512C62.0846 156.747 62.5646 156.864 63.0873 156.864ZM77.2736 149.232V158H75.8176V156.704C75.5403 157.152 75.151 157.504 74.6496 157.76C74.159 158.005 73.615 158.128 73.0176 158.128C72.335 158.128 71.7216 157.989 71.1776 157.712C70.6336 157.424 70.2016 156.997 69.8816 156.432C69.5723 155.867 69.4176 155.179 69.4176 154.368V149.232H70.8576V154.176C70.8576 155.04 71.0763 155.707 71.5136 156.176C71.951 156.635 72.5483 156.864 73.3056 156.864C74.0843 156.864 74.6976 156.624 75.1456 156.144C75.5936 155.664 75.8176 154.965 75.8176 154.048V149.232H77.2736ZM81.188 150.656C81.444 150.155 81.8067 149.765 82.276 149.488C82.756 149.211 83.3373 149.072 84.02 149.072V150.576H83.636C82.004 150.576 81.188 151.461 81.188 153.232V158H79.732V149.232H81.188V150.656ZM93.2304 156.656L95.9504 149.232H97.5024L94.0624 158H92.3664L88.9264 149.232H90.4944L93.2304 156.656ZM102.759 158.144C101.938 158.144 101.191 157.957 100.519 157.584C99.8578 157.211 99.3351 156.683 98.9511 156C98.5778 155.307 98.3911 154.507 98.3911 153.6C98.3911 152.704 98.5831 151.915 98.9671 151.232C99.3618 150.539 99.8951 150.011 100.567 149.648C101.239 149.275 101.991 149.088 102.823 149.088C103.655 149.088 104.407 149.275 105.079 149.648C105.751 150.011 106.279 150.533 106.663 151.216C107.058 151.899 107.255 152.693 107.255 153.6C107.255 154.507 107.052 155.307 106.647 156C106.252 156.683 105.714 157.211 105.031 157.584C104.348 157.957 103.591 158.144 102.759 158.144ZM102.759 156.864C103.282 156.864 103.772 156.741 104.231 156.496C104.69 156.251 105.058 155.883 105.335 155.392C105.623 154.901 105.767 154.304 105.767 153.6C105.767 152.896 105.628 152.299 105.351 151.808C105.074 151.317 104.711 150.955 104.263 150.72C103.815 150.475 103.33 150.352 102.807 150.352C102.274 150.352 101.783 150.475 101.335 150.72C100.898 150.955 100.546 151.317 100.279 151.808C100.012 152.299 99.8791 152.896 99.8791 153.6C99.8791 154.315 100.007 154.917 100.263 155.408C100.53 155.899 100.882 156.267 101.319 156.512C101.756 156.747 102.236 156.864 102.759 156.864ZM110.946 150.432V155.6C110.946 156.027 111.036 156.331 111.218 156.512C111.399 156.683 111.714 156.768 112.161 156.768H113.234V158H111.922C111.111 158 110.503 157.813 110.098 157.44C109.692 157.067 109.49 156.453 109.49 155.6V150.432H108.354V149.232H109.49V147.024H110.946V149.232H113.234V150.432H110.946ZM122.998 153.28C122.998 153.557 122.982 153.851 122.95 154.16H115.942C115.995 155.024 116.288 155.701 116.822 156.192C117.366 156.672 118.022 156.912 118.79 156.912C119.419 156.912 119.942 156.768 120.358 156.48C120.784 156.181 121.083 155.787 121.254 155.296H122.822C122.587 156.139 122.118 156.827 121.414 157.36C120.71 157.883 119.835 158.144 118.79 158.144C117.958 158.144 117.211 157.957 116.55 157.584C115.899 157.211 115.387 156.683 115.014 156C114.64 155.307 114.454 154.507 114.454 153.6C114.454 152.693 114.635 151.899 114.998 151.216C115.36 150.533 115.867 150.011 116.518 149.648C117.179 149.275 117.936 149.088 118.79 149.088C119.622 149.088 120.358 149.269 120.998 149.632C121.638 149.995 122.128 150.496 122.47 151.136C122.822 151.765 122.998 152.48 122.998 153.28ZM121.494 152.976C121.494 152.421 121.371 151.947 121.126 151.552C120.88 151.147 120.544 150.843 120.118 150.64C119.702 150.427 119.238 150.32 118.726 150.32C117.99 150.32 117.36 150.555 116.838 151.024C116.326 151.493 116.032 152.144 115.958 152.976H121.494ZM128.024 158.144C127.352 158.144 126.749 158.032 126.216 157.808C125.682 157.573 125.261 157.253 124.952 156.848C124.642 156.432 124.472 155.957 124.44 155.424H125.944C125.986 155.861 126.189 156.219 126.552 156.496C126.925 156.773 127.41 156.912 128.008 156.912C128.562 156.912 129 156.789 129.32 156.544C129.64 156.299 129.8 155.989 129.8 155.616C129.8 155.232 129.629 154.949 129.288 154.768C128.946 154.576 128.418 154.389 127.704 154.208C127.053 154.037 126.52 153.867 126.104 153.696C125.698 153.515 125.346 153.253 125.048 152.912C124.76 152.56 124.616 152.101 124.616 151.536C124.616 151.088 124.749 150.677 125.016 150.304C125.282 149.931 125.661 149.637 126.152 149.424C126.642 149.2 127.202 149.088 127.832 149.088C128.802 149.088 129.586 149.333 130.184 149.824C130.781 150.315 131.101 150.987 131.144 151.84H129.688C129.656 151.381 129.469 151.013 129.128 150.736C128.797 150.459 128.349 150.32 127.784 150.32C127.261 150.32 126.845 150.432 126.536 150.656C126.226 150.88 126.072 151.173 126.072 151.536C126.072 151.824 126.162 152.064 126.344 152.256C126.536 152.437 126.77 152.587 127.048 152.704C127.336 152.811 127.73 152.933 128.232 153.072C128.861 153.243 129.373 153.413 129.768 153.584C130.162 153.744 130.498 153.989 130.776 154.32C131.064 154.651 131.213 155.083 131.224 155.616C131.224 156.096 131.09 156.528 130.824 156.912C130.557 157.296 130.178 157.6 129.688 157.824C129.208 158.037 128.653 158.144 128.024 158.144ZM137.001 153.6C137.001 152.693 137.182 151.904 137.545 151.232C137.907 150.549 138.409 150.021 139.049 149.648C139.699 149.275 140.441 149.088 141.273 149.088C142.35 149.088 143.235 149.349 143.929 149.872C144.633 150.395 145.097 151.12 145.321 152.048H143.753C143.603 151.515 143.31 151.093 142.873 150.784C142.446 150.475 141.913 150.32 141.273 150.32C140.441 150.32 139.769 150.608 139.257 151.184C138.745 151.749 138.489 152.555 138.489 153.6C138.489 154.656 138.745 155.472 139.257 156.048C139.769 156.624 140.441 156.912 141.273 156.912C141.913 156.912 142.446 156.763 142.873 156.464C143.299 156.165 143.593 155.739 143.753 155.184H145.321C145.086 156.08 144.617 156.8 143.913 157.344C143.209 157.877 142.329 158.144 141.273 158.144C140.441 158.144 139.699 157.957 139.049 157.584C138.409 157.211 137.907 156.683 137.545 156C137.182 155.317 137.001 154.517 137.001 153.6ZM151.087 158.144C150.266 158.144 149.519 157.957 148.847 157.584C148.186 157.211 147.663 156.683 147.279 156C146.906 155.307 146.719 154.507 146.719 153.6C146.719 152.704 146.911 151.915 147.295 151.232C147.69 150.539 148.223 150.011 148.895 149.648C149.567 149.275 150.319 149.088 151.151 149.088C151.983 149.088 152.735 149.275 153.407 149.648C154.079 150.011 154.607 150.533 154.991 151.216C155.386 151.899 155.583 152.693 155.583 153.6C155.583 154.507 155.381 155.307 154.975 156C154.581 156.683 154.042 157.211 153.359 157.584C152.677 157.957 151.919 158.144 151.087 158.144ZM151.087 156.864C151.61 156.864 152.101 156.741 152.559 156.496C153.018 156.251 153.386 155.883 153.663 155.392C153.951 154.901 154.095 154.304 154.095 153.6C154.095 152.896 153.957 152.299 153.679 151.808C153.402 151.317 153.039 150.955 152.591 150.72C152.143 150.475 151.658 150.352 151.135 150.352C150.602 150.352 150.111 150.475 149.663 150.72C149.226 150.955 148.874 151.317 148.607 151.808C148.341 152.299 148.207 152.896 148.207 153.6C148.207 154.315 148.335 154.917 148.591 155.408C148.858 155.899 149.21 156.267 149.647 156.512C150.085 156.747 150.565 156.864 151.087 156.864ZM165.274 149.232V158H163.818V156.704C163.54 157.152 163.151 157.504 162.65 157.76C162.159 158.005 161.615 158.128 161.018 158.128C160.335 158.128 159.722 157.989 159.178 157.712C158.634 157.424 158.202 156.997 157.882 156.432C157.572 155.867 157.418 155.179 157.418 154.368V149.232H158.858V154.176C158.858 155.04 159.076 155.707 159.514 156.176C159.951 156.635 160.548 156.864 161.306 156.864C162.084 156.864 162.698 156.624 163.146 156.144C163.594 155.664 163.818 154.965 163.818 154.048V149.232H165.274ZM172.004 149.072C173.071 149.072 173.935 149.397 174.596 150.048C175.257 150.688 175.588 151.616 175.588 152.832V158H174.148V153.04C174.148 152.165 173.929 151.499 173.492 151.04C173.055 150.571 172.457 150.336 171.7 150.336C170.932 150.336 170.319 150.576 169.86 151.056C169.412 151.536 169.188 152.235 169.188 153.152V158H167.732V149.232H169.188V150.48C169.476 150.032 169.865 149.685 170.356 149.44C170.857 149.195 171.407 149.072 172.004 149.072ZM179.742 150.432V155.6C179.742 156.027 179.833 156.331 180.014 156.512C180.196 156.683 180.51 156.768 180.958 156.768H182.03V158H180.718C179.908 158 179.3 157.813 178.894 157.44C178.489 157.067 178.286 156.453 178.286 155.6V150.432H177.15V149.232H178.286V147.024H179.742V149.232H182.03V150.432H179.742ZM185.683 146.848L185.507 154.848H184.291L184.115 146.848H185.683ZM184.963 158.096C184.685 158.096 184.451 158 184.259 157.808C184.067 157.616 183.971 157.381 183.971 157.104C183.971 156.827 184.067 156.592 184.259 156.4C184.451 156.208 184.685 156.112 184.963 156.112C185.229 156.112 185.453 156.208 185.635 156.4C185.827 156.592 185.923 156.827 185.923 157.104C185.923 157.381 185.827 157.616 185.635 157.808C185.453 158 185.229 158.096 184.963 158.096Z" fill="white"/>
<path d="M4.768 87.112C4.032 87.112 3.37067 86.984 2.784 86.728C2.208 86.4613 1.75467 86.0987 1.424 85.64C1.09333 85.1707 0.922667 84.632 0.912 84.024H2.464C2.51733 84.5467 2.73067 84.9893 3.104 85.352C3.488 85.704 4.04267 85.88 4.768 85.88C5.46133 85.88 6.00533 85.7093 6.4 85.368C6.80533 85.016 7.008 84.568 7.008 84.024C7.008 83.5973 6.89067 83.2507 6.656 82.984C6.42133 82.7173 6.128 82.5147 5.776 82.376C5.424 82.2373 4.94933 82.088 4.352 81.928C3.616 81.736 3.024 81.544 2.576 81.352C2.13867 81.16 1.76 80.8613 1.44 80.456C1.13067 80.04 0.976 79.4853 0.976 78.792C0.976 78.184 1.13067 77.6453 1.44 77.176C1.74933 76.7067 2.18133 76.344 2.736 76.088C3.30133 75.832 3.94667 75.704 4.672 75.704C5.71733 75.704 6.57067 75.9653 7.232 76.488C7.904 77.0107 8.28267 77.704 8.368 78.568H6.768C6.71467 78.1413 6.49067 77.768 6.096 77.448C5.70133 77.1173 5.17867 76.952 4.528 76.952C3.92 76.952 3.424 77.112 3.04 77.432C2.656 77.7413 2.464 78.1787 2.464 78.744C2.464 79.1493 2.576 79.48 2.8 79.736C3.03467 79.992 3.31733 80.1893 3.648 80.328C3.98933 80.456 4.464 80.6053 5.072 80.776C5.808 80.9787 6.4 81.1813 6.848 81.384C7.296 81.576 7.68 81.88 8 82.296C8.32 82.7013 8.48 83.256 8.48 83.96C8.48 84.504 8.336 85.016 8.048 85.496C7.76 85.976 7.33333 86.3653 6.768 86.664C6.20267 86.9627 5.536 87.112 4.768 87.112ZM18.3986 78.232V87H16.9426V85.704C16.6653 86.152 16.276 86.504 15.7746 86.76C15.284 87.0053 14.74 87.128 14.1426 87.128C13.46 87.128 12.8466 86.9893 12.3026 86.712C11.7586 86.424 11.3266 85.9973 11.0066 85.432C10.6973 84.8667 10.5426 84.1787 10.5426 83.368V78.232H11.9826V83.176C11.9826 84.04 12.2013 84.7067 12.6386 85.176C13.076 85.6347 13.6733 85.864 14.4306 85.864C15.2093 85.864 15.8226 85.624 16.2706 85.144C16.7186 84.664 16.9426 83.9653 16.9426 83.048V78.232H18.3986ZM22.313 79.848C22.601 79.3467 23.0277 78.9307 23.593 78.6C24.169 78.2587 24.8357 78.088 25.593 78.088C26.3717 78.088 27.0757 78.2747 27.705 78.648C28.345 79.0213 28.8463 79.5493 29.209 80.232C29.5717 80.904 29.753 81.688 29.753 82.584C29.753 83.4693 29.5717 84.2587 29.209 84.952C28.8463 85.6453 28.345 86.184 27.705 86.568C27.0757 86.952 26.3717 87.144 25.593 87.144C24.8463 87.144 24.185 86.9787 23.609 86.648C23.0437 86.3067 22.6117 85.8853 22.313 85.384V91.16H20.857V78.232H22.313V79.848ZM28.265 82.584C28.265 81.9227 28.1317 81.3467 27.865 80.856C27.5983 80.3653 27.2357 79.992 26.777 79.736C26.329 79.48 25.833 79.352 25.289 79.352C24.7557 79.352 24.2597 79.4853 23.801 79.752C23.353 80.008 22.9903 80.3867 22.713 80.888C22.4463 81.3787 22.313 81.9493 22.313 82.6C22.313 83.2613 22.4463 83.8427 22.713 84.344C22.9903 84.8347 23.353 85.2133 23.801 85.48C24.2597 85.736 24.7557 85.864 25.289 85.864C25.833 85.864 26.329 85.736 26.777 85.48C27.2357 85.2133 27.5983 84.8347 27.865 84.344C28.1317 83.8427 28.265 83.256 28.265 82.584ZM33.1255 79.848C33.4135 79.3467 33.8402 78.9307 34.4055 78.6C34.9815 78.2587 35.6482 78.088 36.4055 78.088C37.1842 78.088 37.8882 78.2747 38.5175 78.648C39.1575 79.0213 39.6588 79.5493 40.0215 80.232C40.3842 80.904 40.5655 81.688 40.5655 82.584C40.5655 83.4693 40.3842 84.2587 40.0215 84.952C39.6588 85.6453 39.1575 86.184 38.5175 86.568C37.8882 86.952 37.1842 87.144 36.4055 87.144C35.6588 87.144 34.9975 86.9787 34.4215 86.648C33.8562 86.3067 33.4242 85.8853 33.1255 85.384V91.16H31.6695V78.232H33.1255V79.848ZM39.0775 82.584C39.0775 81.9227 38.9442 81.3467 38.6775 80.856C38.4108 80.3653 38.0482 79.992 37.5895 79.736C37.1415 79.48 36.6455 79.352 36.1015 79.352C35.5682 79.352 35.0722 79.4853 34.6135 79.752C34.1655 80.008 33.8028 80.3867 33.5255 80.888C33.2588 81.3787 33.1255 81.9493 33.1255 82.6C33.1255 83.2613 33.2588 83.8427 33.5255 84.344C33.8028 84.8347 34.1655 85.2133 34.6135 85.48C35.0722 85.736 35.5682 85.864 36.1015 85.864C36.6455 85.864 37.1415 85.736 37.5895 85.48C38.0482 85.2133 38.4108 84.8347 38.6775 84.344C38.9442 83.8427 39.0775 83.256 39.0775 82.584ZM46.306 87.144C45.4847 87.144 44.738 86.9573 44.066 86.584C43.4047 86.2107 42.882 85.6827 42.498 85C42.1247 84.3067 41.938 83.5067 41.938 82.6C41.938 81.704 42.13 80.9147 42.514 80.232C42.9087 79.5387 43.442 79.0107 44.114 78.648C44.786 78.2747 45.538 78.088 46.37 78.088C47.202 78.088 47.954 78.2747 48.626 78.648C49.298 79.0107 49.826 79.5333 50.21 80.216C50.6047 80.8987 50.802 81.6933 50.802 82.6C50.802 83.5067 50.5993 84.3067 50.194 85C49.7993 85.6827 49.2607 86.2107 48.578 86.584C47.8953 86.9573 47.138 87.144 46.306 87.144ZM46.306 85.864C46.8287 85.864 47.3193 85.7413 47.778 85.496C48.2367 85.2507 48.6047 84.8827 48.882 84.392C49.17 83.9013 49.314 83.304 49.314 82.6C49.314 81.896 49.1753 81.2987 48.898 80.808C48.6207 80.3173 48.258 79.9547 47.81 79.72C47.362 79.4747 46.8767 79.352 46.354 79.352C45.8207 79.352 45.33 79.4747 44.882 79.72C44.4447 79.9547 44.0927 80.3173 43.826 80.808C43.5593 81.2987 43.426 81.896 43.426 82.6C43.426 83.3147 43.554 83.9173 43.81 84.408C44.0767 84.8987 44.4287 85.2667 44.866 85.512C45.3033 85.7467 45.7833 85.864 46.306 85.864ZM54.1724 79.656C54.4284 79.1547 54.791 78.7653 55.2604 78.488C55.7404 78.2107 56.3217 78.072 57.0044 78.072V79.576H56.6204C54.9884 79.576 54.1724 80.4613 54.1724 82.232V87H52.7164V78.232H54.1724V79.656ZM60.4611 79.432V84.6C60.4611 85.0267 60.5518 85.3307 60.7331 85.512C60.9145 85.6827 61.2291 85.768 61.6771 85.768H62.7491V87H61.4371C60.6265 87 60.0185 86.8133 59.6131 86.44C59.2078 86.0667 59.0051 85.4533 59.0051 84.6V79.432H57.8691V78.232H59.0051V76.024H60.4611V78.232H62.7491V79.432H60.4611ZM76.3309 78.232L71.0509 91.128H69.5469L71.2749 86.904L67.7389 78.232H69.3549L72.1069 85.336L74.8269 78.232H76.3309ZM81.6185 87.144C80.7972 87.144 80.0505 86.9573 79.3785 86.584C78.7172 86.2107 78.1945 85.6827 77.8105 85C77.4372 84.3067 77.2505 83.5067 77.2505 82.6C77.2505 81.704 77.4425 80.9147 77.8265 80.232C78.2212 79.5387 78.7545 79.0107 79.4265 78.648C80.0985 78.2747 80.8505 78.088 81.6825 78.088C82.5145 78.088 83.2665 78.2747 83.9385 78.648C84.6105 79.0107 85.1385 79.5333 85.5225 80.216C85.9172 80.8987 86.1145 81.6933 86.1145 82.6C86.1145 83.5067 85.9118 84.3067 85.5065 85C85.1118 85.6827 84.5732 86.2107 83.8905 86.584C83.2078 86.9573 82.4505 87.144 81.6185 87.144ZM81.6185 85.864C82.1412 85.864 82.6318 85.7413 83.0905 85.496C83.5492 85.2507 83.9172 84.8827 84.1945 84.392C84.4825 83.9013 84.6265 83.304 84.6265 82.6C84.6265 81.896 84.4878 81.2987 84.2105 80.808C83.9332 80.3173 83.5705 79.9547 83.1225 79.72C82.6745 79.4747 82.1892 79.352 81.6665 79.352C81.1332 79.352 80.6425 79.4747 80.1945 79.72C79.7572 79.9547 79.4052 80.3173 79.1385 80.808C78.8718 81.2987 78.7385 81.896 78.7385 82.6C78.7385 83.3147 78.8665 83.9173 79.1225 84.408C79.3892 84.8987 79.7412 85.2667 80.1785 85.512C80.6158 85.7467 81.0958 85.864 81.6185 85.864ZM95.8049 78.232V87H94.3489V85.704C94.0715 86.152 93.6822 86.504 93.1809 86.76C92.6902 87.0053 92.1462 87.128 91.5489 87.128C90.8662 87.128 90.2529 86.9893 89.7089 86.712C89.1649 86.424 88.7329 85.9973 88.4129 85.432C88.1035 84.8667 87.9489 84.1787 87.9489 83.368V78.232H89.3889V83.176C89.3889 84.04 89.6075 84.7067 90.0449 85.176C90.4822 85.6347 91.0795 85.864 91.8369 85.864C92.6155 85.864 93.2289 85.624 93.6769 85.144C94.1249 84.664 94.3489 83.9653 94.3489 83.048V78.232H95.8049ZM99.7193 79.656C99.9753 79.1547 100.338 78.7653 100.807 78.488C101.287 78.2107 101.869 78.072 102.551 78.072V79.576H102.167C100.535 79.576 99.7193 80.4613 99.7193 82.232V87H98.2633V78.232H99.7193V79.656ZM4.8 103.432H2.96V111H1.504V103.432H0.368V102.232H1.504V101.608C1.504 100.627 1.75467 99.912 2.256 99.464C2.768 99.0053 3.584 98.776 4.704 98.776V99.992C4.064 99.992 3.61067 100.12 3.344 100.376C3.088 100.621 2.96 101.032 2.96 101.608V102.232H4.8V103.432ZM5.95363 106.584C5.95363 105.688 6.13496 104.904 6.49763 104.232C6.86029 103.549 7.35629 103.021 7.98563 102.648C8.62563 102.275 9.33496 102.088 10.1136 102.088C10.8816 102.088 11.5483 102.253 12.1136 102.584C12.679 102.915 13.1003 103.331 13.3776 103.832V102.232H14.8496V111H13.3776V109.368C13.0896 109.88 12.6576 110.307 12.0816 110.648C11.5163 110.979 10.855 111.144 10.0976 111.144C9.31896 111.144 8.61496 110.952 7.98563 110.568C7.35629 110.184 6.86029 109.645 6.49763 108.952C6.13496 108.259 5.95363 107.469 5.95363 106.584ZM13.3776 106.6C13.3776 105.939 13.2443 105.363 12.9776 104.872C12.711 104.381 12.3483 104.008 11.8896 103.752C11.4416 103.485 10.9456 103.352 10.4016 103.352C9.85763 103.352 9.36163 103.48 8.91363 103.736C8.46563 103.992 8.10829 104.365 7.84163 104.856C7.57496 105.347 7.44163 105.923 7.44163 106.584C7.44163 107.256 7.57496 107.843 7.84163 108.344C8.10829 108.835 8.46563 109.213 8.91363 109.48C9.36163 109.736 9.85763 109.864 10.4016 109.864C10.9456 109.864 11.4416 109.736 11.8896 109.48C12.3483 109.213 12.711 108.835 12.9776 108.344C13.2443 107.843 13.3776 107.261 13.3776 106.6ZM20.5741 109.656L23.2941 102.232H24.8461L21.4061 111H19.7101L16.2701 102.232H17.8381L20.5741 109.656ZM30.1029 111.144C29.2815 111.144 28.5349 110.957 27.8629 110.584C27.2015 110.211 26.6789 109.683 26.2949 109C25.9215 108.307 25.7349 107.507 25.7349 106.6C25.7349 105.704 25.9269 104.915 26.3109 104.232C26.7055 103.539 27.2389 103.011 27.9109 102.648C28.5829 102.275 29.3349 102.088 30.1669 102.088C30.9989 102.088 31.7509 102.275 32.4229 102.648C33.0949 103.011 33.6229 103.533 34.0069 104.216C34.4015 104.899 34.5989 105.693 34.5989 106.6C34.5989 107.507 34.3962 108.307 33.9909 109C33.5962 109.683 33.0575 110.211 32.3749 110.584C31.6922 110.957 30.9349 111.144 30.1029 111.144ZM30.1029 109.864C30.6255 109.864 31.1162 109.741 31.5749 109.496C32.0335 109.251 32.4015 108.883 32.6789 108.392C32.9669 107.901 33.1109 107.304 33.1109 106.6C33.1109 105.896 32.9722 105.299 32.6949 104.808C32.4175 104.317 32.0549 103.955 31.6069 103.72C31.1589 103.475 30.6735 103.352 30.1509 103.352C29.6175 103.352 29.1269 103.475 28.6789 103.72C28.2415 103.955 27.8895 104.317 27.6229 104.808C27.3562 105.299 27.2229 105.896 27.2229 106.6C27.2229 107.315 27.3509 107.917 27.6069 108.408C27.8735 108.899 28.2255 109.267 28.6629 109.512C29.1002 109.747 29.5802 109.864 30.1029 109.864ZM37.9693 103.656C38.2253 103.155 38.5879 102.765 39.0573 102.488C39.5373 102.211 40.1186 102.072 40.8013 102.072V103.576H40.4173C38.7853 103.576 37.9693 104.461 37.9693 106.232V111H36.5133V102.232H37.9693V103.656ZM43.234 100.808C42.9567 100.808 42.722 100.712 42.53 100.52C42.338 100.328 42.242 100.093 42.242 99.816C42.242 99.5387 42.338 99.304 42.53 99.112C42.722 98.92 42.9567 98.824 43.234 98.824C43.5007 98.824 43.7247 98.92 43.906 99.112C44.098 99.304 44.194 99.5387 44.194 99.816C44.194 100.093 44.098 100.328 43.906 100.52C43.7247 100.712 43.5007 100.808 43.234 100.808ZM43.938 102.232V111H42.482V102.232H43.938ZM48.1955 103.432V108.6C48.1955 109.027 48.2862 109.331 48.4675 109.512C48.6488 109.683 48.9635 109.768 49.4115 109.768H50.4835V111H49.1715C48.3608 111 47.7528 110.813 47.3475 110.44C46.9422 110.067 46.7395 109.453 46.7395 108.6V103.432H45.6035V102.232H46.7395V100.024H48.1955V102.232H50.4835V103.432H48.1955ZM60.2476 106.28C60.2476 106.557 60.2316 106.851 60.1996 107.16H53.1916C53.245 108.024 53.5383 108.701 54.0716 109.192C54.6156 109.672 55.2716 109.912 56.0396 109.912C56.669 109.912 57.1916 109.768 57.6076 109.48C58.0343 109.181 58.333 108.787 58.5036 108.296H60.0716C59.837 109.139 59.3676 109.827 58.6636 110.36C57.9596 110.883 57.085 111.144 56.0396 111.144C55.2076 111.144 54.461 110.957 53.7996 110.584C53.149 110.211 52.637 109.683 52.2636 109C51.8903 108.307 51.7036 107.507 51.7036 106.6C51.7036 105.693 51.885 104.899 52.2476 104.216C52.6103 103.533 53.117 103.011 53.7676 102.648C54.429 102.275 55.1863 102.088 56.0396 102.088C56.8716 102.088 57.6076 102.269 58.2476 102.632C58.8876 102.995 59.3783 103.496 59.7196 104.136C60.0716 104.765 60.2476 105.48 60.2476 106.28ZM58.7436 105.976C58.7436 105.421 58.621 104.947 58.3756 104.552C58.1303 104.147 57.7943 103.843 57.3676 103.64C56.9516 103.427 56.4876 103.32 55.9756 103.32C55.2396 103.32 54.6103 103.555 54.0876 104.024C53.5756 104.493 53.2823 105.144 53.2076 105.976H58.7436ZM68.2111 103.432V108.6C68.2111 109.027 68.3018 109.331 68.4831 109.512C68.6645 109.683 68.9791 109.768 69.4271 109.768H70.4991V111H69.1871C68.3765 111 67.7685 110.813 67.3631 110.44C66.9578 110.067 66.7551 109.453 66.7551 108.6V103.432H65.6191V102.232H66.7551V100.024H68.2111V102.232H70.4991V103.432H68.2111ZM71.7193 106.584C71.7193 105.688 71.9006 104.904 72.2633 104.232C72.6259 103.549 73.1219 103.021 73.7513 102.648C74.3913 102.275 75.1006 102.088 75.8793 102.088C76.6473 102.088 77.3139 102.253 77.8793 102.584C78.4446 102.915 78.8659 103.331 79.1433 103.832V102.232H80.6153V111H79.1433V109.368C78.8553 109.88 78.4233 110.307 77.8473 110.648C77.2819 110.979 76.6206 111.144 75.8633 111.144C75.0846 111.144 74.3806 110.952 73.7513 110.568C73.1219 110.184 72.6259 109.645 72.2633 108.952C71.9006 108.259 71.7193 107.469 71.7193 106.584ZM79.1433 106.6C79.1433 105.939 79.0099 105.363 78.7433 104.872C78.4766 104.381 78.1139 104.008 77.6553 103.752C77.2073 103.485 76.7113 103.352 76.1673 103.352C75.6233 103.352 75.1273 103.48 74.6793 103.736C74.2313 103.992 73.8739 104.365 73.6073 104.856C73.3406 105.347 73.2073 105.923 73.2073 106.584C73.2073 107.256 73.3406 107.843 73.6073 108.344C73.8739 108.835 74.2313 109.213 74.6793 109.48C75.1273 109.736 75.6233 109.864 76.1673 109.864C76.7113 109.864 77.2073 109.736 77.6553 109.48C78.1139 109.213 78.4766 108.835 78.7433 108.344C79.0099 107.843 79.1433 107.261 79.1433 106.6ZM84.5318 99.16V111H83.0758V99.16H84.5318ZM95.0133 106.28C95.0133 106.557 94.9973 106.851 94.9653 107.16H87.9573C88.0106 108.024 88.3039 108.701 88.8373 109.192C89.3813 109.672 90.0373 109.912 90.8053 109.912C91.4346 109.912 91.9573 109.768 92.3733 109.48C92.7999 109.181 93.0986 108.787 93.2693 108.296H94.8373C94.6026 109.139 94.1333 109.827 93.4293 110.36C92.7253 110.883 91.8506 111.144 90.8053 111.144C89.9733 111.144 89.2266 110.957 88.5653 110.584C87.9146 110.211 87.4026 109.683 87.0293 109C86.6559 108.307 86.4693 107.507 86.4693 106.6C86.4693 105.693 86.6506 104.899 87.0133 104.216C87.3759 103.533 87.8826 103.011 88.5333 102.648C89.1946 102.275 89.9519 102.088 90.8053 102.088C91.6373 102.088 92.3733 102.269 93.0133 102.632C93.6533 102.995 94.1439 103.496 94.4853 104.136C94.8373 104.765 95.0133 105.48 95.0133 106.28ZM93.5093 105.976C93.5093 105.421 93.3866 104.947 93.1413 104.552C92.8959 104.147 92.5599 103.843 92.1333 103.64C91.7173 103.427 91.2533 103.32 90.7413 103.32C90.0053 103.32 89.3759 103.555 88.8533 104.024C88.3413 104.493 88.0479 105.144 87.9733 105.976H93.5093ZM101.207 102.072C102.274 102.072 103.138 102.397 103.799 103.048C104.46 103.688 104.791 104.616 104.791 105.832V111H103.351V106.04C103.351 105.165 103.132 104.499 102.695 104.04C102.258 103.571 101.66 103.336 100.903 103.336C100.135 103.336 99.5218 103.576 99.0631 104.056C98.6151 104.536 98.3911 105.235 98.3911 106.152V111H96.9351V102.232H98.3911V103.48C98.6791 103.032 99.0685 102.685 99.5591 102.44C100.06 102.195 100.61 102.072 101.207 102.072ZM108.946 103.432V108.6C108.946 109.027 109.036 109.331 109.218 109.512C109.399 109.683 109.714 109.768 110.161 109.768H111.234V111H109.922C109.111 111 108.503 110.813 108.098 110.44C107.692 110.067 107.49 109.453 107.49 108.6V103.432H106.354V102.232H107.49V100.024H108.946V102.232H111.234V103.432H108.946ZM116.102 111.144C115.43 111.144 114.827 111.032 114.294 110.808C113.76 110.573 113.339 110.253 113.03 109.848C112.72 109.432 112.55 108.957 112.518 108.424H114.022C114.064 108.861 114.267 109.219 114.63 109.496C115.003 109.773 115.488 109.912 116.086 109.912C116.64 109.912 117.078 109.789 117.398 109.544C117.718 109.299 117.878 108.989 117.878 108.616C117.878 108.232 117.707 107.949 117.366 107.768C117.024 107.576 116.496 107.389 115.782 107.208C115.131 107.037 114.598 106.867 114.182 106.696C113.776 106.515 113.424 106.253 113.126 105.912C112.838 105.56 112.694 105.101 112.694 104.536C112.694 104.088 112.827 103.677 113.094 103.304C113.36 102.931 113.739 102.637 114.23 102.424C114.72 102.2 115.28 102.088 115.91 102.088C116.88 102.088 117.664 102.333 118.262 102.824C118.859 103.315 119.179 103.987 119.222 104.84H117.766C117.734 104.381 117.547 104.013 117.206 103.736C116.875 103.459 116.427 103.32 115.862 103.32C115.339 103.32 114.923 103.432 114.614 103.656C114.304 103.88 114.15 104.173 114.15 104.536C114.15 104.824 114.24 105.064 114.422 105.256C114.614 105.437 114.848 105.587 115.126 105.704C115.414 105.811 115.808 105.933 116.31 106.072C116.939 106.243 117.451 106.413 117.846 106.584C118.24 106.744 118.576 106.989 118.854 107.32C119.142 107.651 119.291 108.083 119.302 108.616C119.302 109.096 119.168 109.528 118.902 109.912C118.635 110.296 118.256 110.6 117.766 110.824C117.286 111.037 116.731 111.144 116.102 111.144Z" fill="white"/>
</svg>
