<svg xmlns="http://www.w3.org/2000/svg" width="590" height="312" viewBox="0 0 590 312" fill="none">
<path d="M3.15906 21.6483C-1.60352 31.9985 1.58972 45.6926 12.0349 61.8282C22.4487 77.9155 39.9064 96.1617 63.0893 115.422C109.443 153.934 178.505 196.352 259.286 233.523C340.068 270.694 417.211 295.55 476.615 305.702C506.324 310.779 531.538 312.168 550.531 309.612C569.581 307.048 582.058 300.564 586.821 290.214C591.584 279.864 588.39 266.17 577.945 250.034C567.531 233.947 550.074 215.701 526.891 196.44C480.537 157.929 411.475 115.51 330.694 78.3395C249.912 41.1686 172.769 16.3128 113.365 6.16099C83.6561 1.08383 58.4415 -0.305199 39.449 2.25103C20.3994 4.81496 7.92163 11.2982 3.15906 21.6483Z" stroke="url(#paint0_linear_0_5384)" stroke-width="2"/>
<defs>
<linearGradient id="paint0_linear_0_5384" x1="256.463" y1="51.7606" x2="187.727" y2="178.963" gradientUnits="userSpaceOnUse">
<stop stop-color="#BD00FF" stop-opacity="0"/>
<stop offset="0.305326" stop-color="#BD00FF"/>
<stop offset="1" stop-color="#BD00FF" stop-opacity="0"/>
</linearGradient>
</defs>
</svg>