<svg width="138" height="86" viewBox="0 0 138 86" fill="none" xmlns="http://www.w3.org/2000/svg">
<path d="M30.552 43.768H27.144V47.224H25.784V43.768H22.392V42.536H25.784V39.064H27.144V42.536H30.552V43.768ZM32.5299 38.76V37.432H35.5379V49H34.0659V38.76H32.5299ZM38.0389 43.096C38.0389 41.2613 38.3375 39.832 38.9349 38.808C39.5322 37.7733 40.5775 37.256 42.0709 37.256C43.5535 37.256 44.5935 37.7733 45.1909 38.808C45.7882 39.832 46.0869 41.2613 46.0869 43.096C46.0869 44.9627 45.7882 46.4133 45.1909 47.448C44.5935 48.4827 43.5535 49 42.0709 49C40.5775 49 39.5322 48.4827 38.9349 47.448C38.3375 46.4133 38.0389 44.9627 38.0389 43.096ZM44.6469 43.096C44.6469 42.168 44.5829 41.384 44.4549 40.744C44.3375 40.0933 44.0869 39.5707 43.7029 39.176C43.3295 38.7813 42.7855 38.584 42.0709 38.584C41.3455 38.584 40.7909 38.7813 40.4069 39.176C40.0335 39.5707 39.7829 40.0933 39.6549 40.744C39.5375 41.384 39.4789 42.168 39.4789 43.096C39.4789 44.056 39.5375 44.8613 39.6549 45.512C39.7829 46.1627 40.0335 46.6853 40.4069 47.08C40.7909 47.4747 41.3455 47.672 42.0709 47.672C42.7855 47.672 43.3295 47.4747 43.7029 47.08C44.0869 46.6853 44.3375 46.1627 44.4549 45.512C44.5829 44.8613 44.6469 44.056 44.6469 43.096ZM48.0858 43.096C48.0858 41.2613 48.3844 39.832 48.9818 38.808C49.5791 37.7733 50.6244 37.256 52.1178 37.256C53.6004 37.256 54.6404 37.7733 55.2378 38.808C55.8351 39.832 56.1337 41.2613 56.1337 43.096C56.1337 44.9627 55.8351 46.4133 55.2378 47.448C54.6404 48.4827 53.6004 49 52.1178 49C50.6244 49 49.5791 48.4827 48.9818 47.448C48.3844 46.4133 48.0858 44.9627 48.0858 43.096ZM54.6938 43.096C54.6938 42.168 54.6298 41.384 54.5018 40.744C54.3844 40.0933 54.1338 39.5707 53.7498 39.176C53.3764 38.7813 52.8324 38.584 52.1178 38.584C51.3924 38.584 50.8378 38.7813 50.4538 39.176C50.0804 39.5707 49.8298 40.0933 49.7018 40.744C49.5844 41.384 49.5258 42.168 49.5258 43.096C49.5258 44.056 49.5844 44.8613 49.7018 45.512C49.8298 46.1627 50.0804 46.6853 50.4538 47.08C50.8378 47.4747 51.3924 47.672 52.1178 47.672C52.8324 47.672 53.3764 47.4747 53.7498 47.08C54.1338 46.6853 54.3844 46.1627 54.5018 45.512C54.6298 44.8613 54.6938 44.056 54.6938 43.096ZM64.0943 39.032V42.76H68.1583V43.96H64.0943V47.8H68.6383V49H62.6383V37.832H68.6383V39.032H64.0943ZM74.1054 47.656L76.8254 40.232H78.3774L74.9374 49H73.2414L69.8014 40.232H71.3694L74.1054 47.656ZM87.8101 44.28C87.8101 44.5573 87.7941 44.8507 87.7621 45.16H80.7541C80.8075 46.024 81.1008 46.7013 81.6341 47.192C82.1781 47.672 82.8341 47.912 83.6021 47.912C84.2315 47.912 84.7541 47.768 85.1701 47.48C85.5968 47.1813 85.8955 46.7867 86.0661 46.296H87.6341C87.3995 47.1387 86.9301 47.8267 86.2261 48.36C85.5221 48.8827 84.6475 49.144 83.6021 49.144C82.7701 49.144 82.0235 48.9573 81.3621 48.584C80.7115 48.2107 80.1995 47.6827 79.8261 47C79.4528 46.3067 79.2661 45.5067 79.2661 44.6C79.2661 43.6933 79.4475 42.8987 79.8101 42.216C80.1728 41.5333 80.6795 41.0107 81.3301 40.648C81.9915 40.2747 82.7488 40.088 83.6021 40.088C84.4341 40.088 85.1701 40.2693 85.8101 40.632C86.4501 40.9947 86.9408 41.496 87.2821 42.136C87.6341 42.7653 87.8101 43.48 87.8101 44.28ZM86.3061 43.976C86.3061 43.4213 86.1835 42.9467 85.9381 42.552C85.6928 42.1467 85.3568 41.8427 84.9301 41.64C84.5141 41.4267 84.0501 41.32 83.5381 41.32C82.8021 41.32 82.1728 41.5547 81.6501 42.024C81.1381 42.4933 80.8448 43.144 80.7701 43.976H86.3061ZM94.004 40.072C95.0707 40.072 95.9347 40.3973 96.596 41.048C97.2573 41.688 97.588 42.616 97.588 43.832V49H96.148V44.04C96.148 43.1653 95.9293 42.4987 95.492 42.04C95.0547 41.5707 94.4573 41.336 93.7 41.336C92.932 41.336 92.3187 41.576 91.86 42.056C91.412 42.536 91.188 43.2347 91.188 44.152V49H89.732V40.232H91.188V41.48C91.476 41.032 91.8653 40.6853 92.356 40.44C92.8573 40.1947 93.4067 40.072 94.004 40.072ZM101.742 41.432V46.6C101.742 47.0267 101.833 47.3307 102.014 47.512C102.196 47.6827 102.51 47.768 102.958 47.768H104.03V49H102.718C101.908 49 101.3 48.8133 100.894 48.44C100.489 48.0667 100.286 47.4533 100.286 46.6V41.432H99.1504V40.232H100.286V38.024H101.742V40.232H104.03V41.432H101.742ZM108.899 49.144C108.227 49.144 107.624 49.032 107.091 48.808C106.557 48.5733 106.136 48.2533 105.827 47.848C105.517 47.432 105.347 46.9573 105.315 46.424H106.819C106.861 46.8613 107.064 47.2187 107.427 47.496C107.8 47.7733 108.285 47.912 108.883 47.912C109.437 47.912 109.875 47.7893 110.195 47.544C110.515 47.2987 110.675 46.9893 110.675 46.616C110.675 46.232 110.504 45.9493 110.163 45.768C109.821 45.576 109.293 45.3893 108.579 45.208C107.928 45.0373 107.395 44.8667 106.979 44.696C106.573 44.5147 106.221 44.2533 105.923 43.912C105.635 43.56 105.491 43.1013 105.491 42.536C105.491 42.088 105.624 41.6773 105.891 41.304C106.157 40.9307 106.536 40.6373 107.027 40.424C107.517 40.2 108.077 40.088 108.707 40.088C109.677 40.088 110.461 40.3333 111.059 40.824C111.656 41.3147 111.976 41.9867 112.019 42.84H110.563C110.531 42.3813 110.344 42.0133 110.003 41.736C109.672 41.4587 109.224 41.32 108.659 41.32C108.136 41.32 107.72 41.432 107.411 41.656C107.101 41.88 106.947 42.1733 106.947 42.536C106.947 42.824 107.037 43.064 107.219 43.256C107.411 43.4373 107.645 43.5867 107.923 43.704C108.211 43.8107 108.605 43.9333 109.107 44.072C109.736 44.2427 110.248 44.4133 110.643 44.584C111.037 44.744 111.373 44.9893 111.651 45.32C111.939 45.6507 112.088 46.0827 112.099 46.616C112.099 47.096 111.965 47.528 111.699 47.912C111.432 48.296 111.053 48.6 110.563 48.824C110.083 49.0373 109.528 49.144 108.899 49.144Z" fill="#3DDEED" fill-opacity="0.8"/>
<path d="M2.45068 77.3936L134.755 77.3936V35.9867L108.215 7.67738H2.45068L2.45068 77.3936Z" stroke="#3DDEED" stroke-opacity="0.8"/>
<path d="M4.56396 74.7925H132.316V37.2877L106.752 10.1159H4.56396L4.56396 74.7925Z" stroke="#3DDEED" stroke-opacity="0.8"/>
<path d="M78.519 80.1694V77.7309H135.092V69.4401L137.043 71.716V80.1694H78.519Z" fill="#3DDEED" fill-opacity="0.8"/>
<path d="M17.557 80.6449H17.7934L17.9434 80.8276L21.5324 85.1968H27.6238V79.369H3.14201L4.14452 80.6449H17.557Z" stroke="#3DDEED" stroke-opacity="0.8"/>
<path d="M0 20.6703L2.11336 22.7837L2.11336 7.33993H14.6309L12.6801 5.38914H0L0 20.6703Z" fill="#3DDEED" fill-opacity="0.8"/>
<path d="M108.431 1.00001V6.03955L45.6807 6.03955L49.5822 1.00001L92.4996 1.00001L108.431 1.00001Z" fill="#3DDEED" fill-opacity="0.8" stroke="#3DDEED" stroke-opacity="0.8"/>
</svg>
