<svg width="105" height="67" viewBox="0 0 105 67" fill="none" xmlns="http://www.w3.org/2000/svg">
<circle cx="33.5" cy="33.5" r="33.5" fill="#FE1085"/>
<path d="M43.2 15.048V15.992H39.936V25H37.36V15.992H34.128V15.048H43.2ZM47.9041 17.24H51.4241C52.2668 17.24 52.6881 17.6613 52.6881 18.504V25H50.2241V18.68C50.2241 18.4773 50.1921 18.344 50.1281 18.28C50.0748 18.216 49.9415 18.184 49.7281 18.184H47.5681C47.1948 18.184 47.0081 18.3547 47.0081 18.696V19.16H46.9921V25H44.5121V14.296H46.9921V17.768C47.1201 17.416 47.4241 17.24 47.9041 17.24ZM57.3016 20.552H60.7576V18.68C60.7576 18.4773 60.7256 18.344 60.6616 18.28C60.6083 18.216 60.475 18.184 60.2616 18.184H57.7976C57.5843 18.184 57.4456 18.216 57.3816 18.28C57.3283 18.344 57.3016 18.4773 57.3016 18.68V20.552ZM56.1016 17.24H61.8936C62.7363 17.24 63.1576 17.6613 63.1576 18.504V21.496H57.3016V23.56C57.3016 23.7733 57.3283 23.912 57.3816 23.976C57.4456 24.0293 57.5843 24.056 57.7976 24.056H60.2296C60.443 24.056 60.5763 24.0293 60.6296 23.976C60.6936 23.912 60.7256 23.7733 60.7256 23.56V22.616H63.1256V23.736C63.1256 24.5787 62.7043 25 61.8616 25H56.1016C55.259 25 54.8376 24.5787 54.8376 23.736V18.504C54.8376 17.6613 55.259 17.24 56.1016 17.24ZM42.096 30.048H44.48V40H42.192L37.696 32.56V40H35.312V30.048H37.648L42.096 37.472V30.048ZM49.3329 35.552H52.7889V33.68C52.7889 33.4773 52.7569 33.344 52.6929 33.28C52.6395 33.216 52.5062 33.184 52.2929 33.184H49.8289C49.6155 33.184 49.4769 33.216 49.4129 33.28C49.3595 33.344 49.3329 33.4773 49.3329 33.68V35.552ZM48.1329 32.24H53.9249C54.7675 32.24 55.1889 32.6613 55.1889 33.504V36.496H49.3329V38.56C49.3329 38.7733 49.3595 38.912 49.4129 38.976C49.4769 39.0293 49.6155 39.056 49.8289 39.056H52.2609C52.4742 39.056 52.6075 39.0293 52.6609 38.976C52.7249 38.912 52.7569 38.7733 52.7569 38.56V37.616H55.1569V38.736C55.1569 39.5787 54.7355 40 53.8929 40H48.1329C47.2902 40 46.8689 39.5787 46.8689 38.736V33.504C46.8689 32.6613 47.2902 32.24 48.1329 32.24ZM62.3486 35.824L65.8206 40H62.9406L60.7326 37.344L58.3646 40H56.4766L59.8206 36.304L56.4766 32.24H59.3566L61.4206 34.8L63.6446 32.24H65.5646L62.3486 35.824ZM71.8553 33.184H70.1432V38.512C70.1432 38.7147 70.1699 38.848 70.2233 38.912C70.2873 38.976 70.4259 39.008 70.6393 39.008H71.8393V40H68.9273C68.0846 40 67.6633 39.5787 67.6633 38.736V33.184H66.4153V32.24H67.6633V30.592H70.1432V32.24H71.8553V33.184ZM82.2961 33.232H79.7041V31.488C79.7041 31.2747 79.6721 31.1413 79.6081 31.088C79.5548 31.024 79.4215 30.992 79.2081 30.992H76.6001C76.3975 30.992 76.2641 31.024 76.2001 31.088C76.1361 31.1413 76.1041 31.2747 76.1041 31.488V38.56C76.1041 38.7733 76.1361 38.912 76.2001 38.976C76.2641 39.0293 76.3975 39.056 76.6001 39.056H79.2241C79.4268 39.056 79.5601 39.0293 79.6241 38.976C79.6881 38.912 79.7201 38.7733 79.7201 38.56V35.824H77.7681V34.88H82.2961V38.736C82.2961 39.5787 81.8748 40 81.0321 40H74.7761C73.9335 40 73.5121 39.5787 73.5121 38.736V31.312C73.5121 30.4693 73.9335 30.048 74.7761 30.048H81.0321C81.8748 30.048 82.2961 30.4693 82.2961 31.312V33.232ZM86.8954 35.552H90.3514V33.68C90.3514 33.4773 90.3194 33.344 90.2554 33.28C90.202 33.216 90.0687 33.184 89.8554 33.184H87.3914C87.178 33.184 87.0394 33.216 86.9754 33.28C86.922 33.344 86.8954 33.4773 86.8954 33.68V35.552ZM85.6954 32.24H91.4874C92.33 32.24 92.7514 32.6613 92.7514 33.504V36.496H86.8954V38.56C86.8954 38.7733 86.922 38.912 86.9754 38.976C87.0394 39.0293 87.178 39.056 87.3914 39.056H89.8234C90.0367 39.056 90.17 39.0293 90.2234 38.976C90.2874 38.912 90.3194 38.7733 90.3194 38.56V37.616H92.7194V38.736C92.7194 39.5787 92.298 40 91.4554 40H85.6954C84.8527 40 84.4314 39.5787 84.4314 38.736V33.504C84.4314 32.6613 84.8527 32.24 85.6954 32.24ZM98.2791 32.24H101.799C102.642 32.24 103.063 32.6613 103.063 33.504V40H100.583V33.68C100.583 33.4773 100.551 33.344 100.487 33.28C100.423 33.216 100.29 33.184 100.087 33.184H97.9431C97.5698 33.184 97.3831 33.3547 97.3831 33.696V34.176H97.3671V40H94.8871V32.24H97.3671V32.768C97.4951 32.416 97.7991 32.24 98.2791 32.24ZM44.632 60.84V56.928C44.632 56.624 44.584 56.424 44.488 56.328C44.408 56.232 44.208 56.184 43.888 56.184H37.408C36.144 56.184 35.512 55.552 35.512 54.288V49.968C35.512 48.704 36.144 48.072 37.408 48.072H46.528C47.792 48.072 48.424 48.704 48.424 49.968V52.632H44.56V50.232C44.56 49.912 44.512 49.712 44.416 49.632C44.32 49.536 44.12 49.488 43.816 49.488H40.144C39.824 49.488 39.616 49.536 39.52 49.632C39.44 49.712 39.4 49.912 39.4 50.232V54.024C39.4 54.344 39.44 54.552 39.52 54.648C39.616 54.728 39.824 54.768 40.144 54.768H46.6C47.864 54.768 48.496 55.4 48.496 56.664V61.104C48.496 62.368 47.864 63 46.6 63H37.48C36.216 63 35.584 62.368 35.584 61.104V58.44H39.448V60.84C39.448 61.16 39.488 61.368 39.568 61.464C39.664 61.544 39.872 61.584 40.192 61.584H43.888C44.208 61.584 44.408 61.544 44.488 61.464C44.584 61.368 44.632 61.16 44.632 60.84ZM56.9187 51.36H62.1987C63.4627 51.36 64.0947 51.992 64.0947 53.256V63H60.3987V53.52C60.3987 53.216 60.3507 53.016 60.2547 52.92C60.1747 52.824 59.9747 52.776 59.6547 52.776H56.4147C55.8547 52.776 55.5747 53.032 55.5747 53.544V54.24H55.5507V63H51.8307V46.944H55.5507V52.152C55.7427 51.624 56.1987 51.36 56.9187 51.36ZM75.9349 60.84V53.52C75.9349 53.216 75.8869 53.016 75.7909 52.92C75.6949 52.824 75.4949 52.776 75.1909 52.776H71.7589C71.4389 52.776 71.2309 52.824 71.1349 52.92C71.0549 53.016 71.0149 53.216 71.0149 53.52V60.84C71.0149 61.16 71.0549 61.368 71.1349 61.464C71.2309 61.544 71.4389 61.584 71.7589 61.584H75.1909C75.4949 61.584 75.6949 61.544 75.7909 61.464C75.8869 61.368 75.9349 61.16 75.9349 60.84ZM69.2149 51.36H77.7349C78.9989 51.36 79.6309 51.992 79.6309 53.256V61.104C79.6309 62.368 78.9989 63 77.7349 63H69.2149C67.9509 63 67.3189 62.368 67.3189 61.104V53.256C67.3189 51.992 67.9509 51.36 69.2149 51.36ZM99.226 51.36H102.73L98.914 63H94.546L92.218 53.976L89.914 63H85.522L81.682 51.36H85.186L87.898 60.672L90.442 51.36H93.994L96.538 60.672L99.226 51.36Z" fill="white"/>
</svg>
